<?xml version="1.0" encoding="UTF-8" standalone="no"?>
<svg
   xmlns:dc="http://purl.org/dc/elements/1.1/"
   xmlns:cc="http://creativecommons.org/ns#"
   xmlns:rdf="http://www.w3.org/1999/02/22-rdf-syntax-ns#"
   xmlns:svg="http://www.w3.org/2000/svg"
   xmlns="http://www.w3.org/2000/svg"
   height="168.05237"
   width="360"
   xml:space="preserve"
   viewBox="0 0 360 168.05237"
   y="0px"
   x="0px"
   id="Layer_1"
   version="1.1"><metadata
     id="metadata75"><rdf:RDF><cc:Work
         rdf:about=""><dc:format>image/svg+xml</dc:format><dc:type
           rdf:resource="http://purl.org/dc/dcmitype/StillImage" /><dc:title></dc:title></cc:Work></rdf:RDF></metadata><defs
     id="defs73" /><style
     id="style3"
     type="text/css">
	.st0{fill:none;}
	.st1{fill:#AA1A20;}
	.st2{fill:#ED1C24;}
	.st3{fill:#F47D31;}
	.st4{fill:#FBB040;}
</style><path
     style="fill:none"
     id="path5"
     d="m 151.6,157.4 c 0,0 0.1,0 0.1,0 l 0,-0.2 -0.1,0.2 z"
     class="st0" /><path
     style="fill:none"
     id="path7"
     d="m 202.1,117.9 c 0,0 0,-0.1 0,-0.1 l -0.1,0 0.1,0.1 z"
     class="st0" /><path
     style="fill:none"
     id="path9"
     d="m 202.1,107.2 c 0,-0.1 0,-0.1 0,0 l -0.1,0 0.1,0 z"
     class="st0" /><path
     style="fill:none"
     id="path11"
     d="m 162.4,157.4 c 0.1,0 0.1,0 0.2,0 l -0.2,-0.2 0,0.2 z"
     class="st0" /><polygon
     transform="translate(-19.1,-24)"
     style="fill:none"
     id="polygon13"
     points="131.4,141.7 131.4,141.7 131.4,141.7 "
     class="st0" /><path
     style="fill:#aa1a20"
     id="path15"
     d="m 198.7,94.4 c -2.2,-5.1 -5.4,-9.8 -9.5,-13.9 -4.1,-4.1 -8.9,-7.3 -14,-9.5 l 0,23.4 23.5,0 z"
     class="st1" /><g
     transform="translate(-19.1,-24)"
     id="g17"><path
       style="fill:#ed1c24"
       id="path19"
       d="m 193.8,94.8 c -11.1,-4.6 -23.7,-4.6 -34.8,0 l 17.4,17.4 17.4,-17.4 z"
       class="st2" /><path
       style="fill:#ed1c24"
       id="path21"
       d="m 218.1,154 c 1.6,-3.9 2.7,-8 3.2,-12.1 l -0.1,-0.1 0.1,0 c 0.4,-3.5 0.4,-7.1 0,-10.6 l -0.1,0 0.1,-0.1 c -0.5,-4.1 -1.6,-8.2 -3.2,-12.1 l -17.5,17.5 17.5,17.5 z"
       class="st2" /></g><g
     transform="translate(-19.1,-24)"
     id="g23"><path
       style="fill:#f47d31"
       id="path25"
       d="m 158.3,95 c -5.1,2.2 -9.8,5.4 -14,9.5 -4.1,4.1 -7.2,8.8 -9.4,13.8 l 23.4,0 0,-23.3 z"
       class="st3" /><path
       style="fill:#f47d31"
       id="path27"
       d="m 194.2,178.1 c 5.1,-2.2 9.9,-5.4 14.1,-9.6 4.2,-4.2 7.3,-8.9 9.5,-14 l -23.6,0 0,23.6 z"
       class="st3" /></g><g
     transform="translate(-19.1,-24)"
     id="g29"><g
       id="g31"><g
         id="g33"><g
           id="g35"><path
             id="path37"
             d="m 215.5,97.1 c -21.8,-21.6 -57,-21.5 -78.6,0.3 -17.6,17.7 -20.8,44.2 -9.7,65.1 l 4.3,-4.3 c -8.9,-18.5 -5.8,-41.4 9.5,-56.8 19.4,-19.5 50.9,-19.6 70.4,-0.2 19.5,19.4 19.6,50.9 0.2,70.4 -15.2,15.3 -37.8,18.7 -56.3,10.1 L 151,186 c 20.9,10.7 47.2,7.2 64.7,-10.4 21.7,-21.7 21.5,-56.9 -0.2,-78.5 z" /></g></g></g><path
       id="path39"
       d="m 19.2,84 26,0 29.1,49.1 c 4.1,6.9 8.8,17.9 8.8,17.9 l 0.3,0 c 0,0 -1.2,-11.3 -1.2,-17.9 l 0,-49.1 25.8,0 0,105.1 -25.9,0 -29.3,-49 C 48.7,133.2 44,122.2 44,122.2 l -0.3,0 c 0,0 1.2,11.3 1.2,17.9 l 0,49 -25.7,0 0,-105.1 z" /><path
       id="path41"
       d="m 234.9,83.8 27.1,0 13.3,65.8 c 1.3,6.5 1.3,11 1.3,11 l 0.3,0 c 0,0 0.1,-4.6 1.8,-11 l 16.2,-65.8 20.8,0 15.8,65.8 c 1.6,6.5 1.8,11 1.8,11 l 0.3,0 c 0,0 0,-4.6 1.3,-11 l 14.4,-65.8 26.6,0 -26.6,105.3 -28.7,0 -13.3,-53.2 c -1.6,-6.8 -2.1,-12.4 -2.1,-12.4 l -0.3,0 c 0,0 -0.4,5.6 -2.1,12.4 l -13.3,53.2 -29,0 -25.6,-105.3 z" /><g
       id="g43"><path
         id="path45"
         d="m 19.2,24.8 15,0 c 7.8,0 13.4,5.1 13.4,13.1 0,8.1 -5.6,13.3 -13.4,13.3 l -10.8,0 0,17 -4.3,0 0,-43.4 z m 14.4,22.5 c 5.8,0 9.6,-3.5 9.6,-9.4 0,-5.9 -3.8,-9.2 -9.5,-9.2 l -10.3,0 0,18.7 10.2,0 z" /><path
         id="path47"
         d="m 56.5,24.8 12.8,0 c 4.4,0 6.4,0.4 8.1,1.2 4.1,1.8 6.5,5.9 6.5,11.2 0,5.9 -3.3,10.4 -8.2,11.7 l 0,0.1 c 0,0 0.4,0.6 1.1,1.7 l 9.4,17.4 -4.9,0 -9.8,-18.2 -10.7,0 0,18.2 -4.3,0 0,-43.3 z m 14.6,21.3 c 5.2,0 8.6,-3.4 8.6,-8.8 0,-3.6 -1.4,-6.2 -3.9,-7.6 -1.3,-0.7 -2.8,-1 -6.2,-1 l -8.8,0 0,17.4 10.3,0 z" /><path
         id="path49"
         d="m 114.8,24.1 c 12.3,0 22.1,9.7 22.1,22.1 0,12.7 -9.8,22.7 -22.1,22.7 -12.3,0 -22.1,-10 -22.1,-22.7 0,-12.4 9.8,-22.1 22.1,-22.1 z m 0,40.9 c 9.7,0 17.6,-8.1 17.6,-18.7 0,-10.4 -7.9,-18.2 -17.6,-18.2 -9.8,0 -17.6,7.8 -17.6,18.2 0,10.5 7.8,18.7 17.6,18.7 z" /><path
         id="path51"
         d="m 146.3,60.1 c 0,0 4.5,4.7 11.3,4.7 4.7,0 8.6,-2.8 8.6,-7.5 0,-10.9 -21.6,-8.1 -21.6,-21.6 0,-6.2 5.5,-11.7 13.5,-11.7 7.5,0 11.6,4.2 11.6,4.2 l -2.1,3.6 c 0,0 -3.8,-3.7 -9.5,-3.7 -5.5,0 -9.1,3.6 -9.1,7.5 0,10.3 21.6,7.3 21.6,21.6 0,6.5 -5,11.7 -13.1,11.7 -8.9,0 -13.7,-5.5 -13.7,-5.5 l 2.5,-3.3 z" /><path
         id="path53"
         d="m 181.1,24.8 15,0 c 7.8,0 13.4,5.1 13.4,13.1 0,8.1 -5.6,13.3 -13.4,13.3 l -10.7,0 0,17 -4.3,0 0,-43.4 z m 14.4,22.5 c 5.8,0 9.6,-3.5 9.6,-9.4 0,-5.9 -3.8,-9.2 -9.5,-9.2 l -10.2,0 0,18.7 10.1,0 z" /><path
         id="path55"
         d="m 218.4,24.8 24.4,0 0,3.8 -20.2,0 0,15.8 16.5,0 0,3.8 -16.5,0 0,16.1 21.3,0 0,3.8 -25.5,0 0,-43.3 z" /><path
         id="path57"
         d="m 253.3,24.8 12.8,0 c 4.4,0 6.4,0.4 8.1,1.2 4.1,1.8 6.5,5.9 6.5,11.2 0,5.9 -3.3,10.4 -8.2,11.7 l 0,0.1 c 0,0 0.4,0.6 1.1,1.7 l 9.4,17.4 -4.9,0 -9.8,-18.2 -10.9,0 0,18.2 -4.3,0 0,-43.3 z m 14.6,21.3 c 5.2,0 8.6,-3.4 8.6,-8.8 0,-3.6 -1.4,-6.2 -3.9,-7.6 -1.3,-0.7 -2.8,-1 -6.2,-1 l -8.8,0 0,17.4 10.3,0 z" /><path
         id="path59"
         d="m 292.8,24.8 4.3,0 0,43.3 -4.3,0 0,-43.3 z" /><path
         id="path61"
         d="m 320.6,28.6 -15.6,0 0,-3.8 35.4,0 0,3.8 -15.5,0 0,39.5 -4.3,0 0,-39.5 z" /><path
         id="path63"
         d="m 360.3,49.5 -14.6,-24.7 4.9,0 9.2,15.7 c 1.3,2.2 2.6,5.2 2.6,5.2 l 0.1,0 c 0,0 1.3,-2.9 2.6,-5.2 l 9.2,-15.7 4.8,0 -14.5,24.7 0,18.6 -4.3,0 0,-18.6 z" /></g></g><g
     transform="translate(-19.1,-24)"
     id="g65"><path
       style="fill:#fbb040"
       id="path67"
       d="m 134.6,118.9 c -3,7.2 -4.1,15.1 -3.2,22.7 l 0,0 0,0 c 0.5,4.1 1.5,8.2 3.1,12.2 L 152,136.4 134.6,118.9 Z"
       class="st4" /><path
       style="fill:#fbb040"
       id="path69"
       d="m 158.7,178.2 c 5.5,2.2 11.4,3.4 17.6,3.4 6.2,0 12.1,-1.2 17.5,-3.3 l -17.5,-17.6 -17.6,17.5 z"
       class="st4" /></g></svg>